<svg width="40" height="40" viewBox="0 0 40 40" fill="none" xmlns="http://www.w3.org/2000/svg">
<circle cx="20" cy="20" r="20" fill="#8D8DDA"/>
<path d="M19.1816 32.5747L19.9517 33.6715L20.7839 32.621C21.4276 31.8083 21.9547 31.1394 22.4187 30.5505C24.1848 28.3092 25.0366 27.2282 27.9286 23.7952C31.6386 19.3913 31.4888 14.1875 29.1951 11.4812C28.0205 10.0954 26.2666 9.38923 24.3418 9.95564C22.8542 10.3934 21.3994 11.5522 20.0768 13.4648C18.9497 11.5666 17.6185 10.3871 16.1862 9.91921C14.3195 9.30947 12.5556 9.99464 11.3423 11.3367C8.95204 13.9807 8.52904 19.1904 12.2209 23.7779C13.4183 25.2658 14.2912 26.3109 15.0267 27.1917C16.469 28.9187 17.3833 30.0135 19.1816 32.5747Z" fill="white" stroke="white" stroke-width="2"/>
</svg>
